<svg width="20" height="21" viewBox="0 0 20 21" fill="none" xmlns="http://www.w3.org/2000/svg">
<g id="icon/editor/format_list_bulleted_24px">
<path id="icon/editor/format_list_bulleted_24px_2" fill-rule="evenodd" clip-rule="evenodd" d="M2.29102 5.02325C2.29102 4.33159 2.84935 3.77325 3.54102 3.77325C4.23268 3.77325 4.79102 4.33159 4.79102 5.02325C4.79102 5.71492 4.23268 6.27325 3.54102 6.27325C2.84935 6.27325 2.29102 5.71492 2.29102 5.02325ZM2.29102 10.0233C2.29102 9.33159 2.84935 8.77325 3.54102 8.77325C4.23268 8.77325 4.79102 9.33159 4.79102 10.0233C4.79102 10.7149 4.23268 11.2733 3.54102 11.2733C2.84935 11.2733 2.29102 10.7149 2.29102 10.0233ZM3.54102 13.7733C2.84935 13.7733 2.29102 14.3399 2.29102 15.0233C2.29102 15.7066 2.85768 16.2733 3.54102 16.2733C4.22435 16.2733 4.79102 15.7066 4.79102 15.0233C4.79102 14.3399 4.23268 13.7733 3.54102 13.7733ZM17.7077 15.8566H6.04102V14.1899H17.7077V15.8566ZM6.04102 10.8566H17.7077V9.18992H6.04102V10.8566ZM6.04102 5.85659V4.18992H17.7077V5.85659H6.04102Z" fill="#EAECF0"/>
</g>
</svg>
