<svg width="19" height="20" viewBox="0 0 19 20" fill="none" xmlns="http://www.w3.org/2000/svg">
<g id="icon/social/people_outline_24px">
<path id="icon/social/people_outline_24px_2" fill-rule="evenodd" clip-rule="evenodd" d="M7.12565 10C8.65357 10 9.89649 8.69167 9.89649 7.08334C9.89649 5.47501 8.65357 4.16667 7.12565 4.16667C5.59774 4.16667 4.35482 5.47501 4.35482 7.08334C4.35482 8.69167 5.59774 10 7.12565 10ZM1.58398 14.375C1.58398 12.4333 5.27315 11.4583 7.12565 11.4583C8.97815 11.4583 12.6673 12.4333 12.6673 14.375V15.8333H1.58398V14.375ZM7.12566 13.125C5.70858 13.125 4.10149 13.6833 3.43649 14.1667H10.8148C10.1498 13.6833 8.54274 13.125 7.12566 13.125ZM8.31315 7.08334C8.31315 6.39167 7.78273 5.83334 7.12565 5.83334C6.46857 5.83334 5.93815 6.39167 5.93815 7.08334C5.93815 7.775 6.46857 8.33334 7.12565 8.33334C7.78273 8.33334 8.31315 7.775 8.31315 7.08334ZM12.699 11.5083C13.6173 12.2083 14.2506 13.1417 14.2506 14.375V15.8333H17.4173V14.375C17.4173 12.6917 14.6465 11.7333 12.699 11.5083ZM14.6465 7.08334C14.6465 8.69167 13.4036 10 11.8756 10C11.4481 10 11.0523 9.89167 10.6881 9.70834C11.1869 8.96667 11.4798 8.05834 11.4798 7.08334C11.4798 6.10834 11.1869 5.20001 10.6881 4.45834C11.0523 4.27501 11.4481 4.16667 11.8756 4.16667C13.4036 4.16667 14.6465 5.47501 14.6465 7.08334Z" fill="#FAFBFC"/>
</g>
</svg>
