<svg width="20" height="21" viewBox="0 0 20 21" fill="none" xmlns="http://www.w3.org/2000/svg">
<g id="policy_black_24dp 1" clip-path="url(#clip0_942_2903)">
<g id="Group">
<g id="Group_2">
<path id="Vector" d="M10 0.856583L2.5 4.18992V9.18991C2.5 13.8149 5.7 18.1399 10 19.1899C14.3 18.1399 17.5 13.8149 17.5 9.18991V4.18992L10 0.856583ZM15.8333 9.18991C15.8333 10.7316 15.4083 12.2316 14.6833 13.5316L13.475 12.3232C14.55 10.7066 14.3667 8.50658 12.9417 7.08158C11.3167 5.45658 8.675 5.45658 7.05 7.08158C5.425 8.70658 5.425 11.3482 7.05 12.9732C8.475 14.3982 10.675 14.5732 12.2917 13.5066L13.725 14.9399C12.7333 16.1232 11.45 17.0316 10 17.4732C6.65 16.4316 4.16667 12.9566 4.16667 9.18991V5.27325L10 2.68158L15.8333 5.27325V9.18991ZM10 12.5232C8.61667 12.5232 7.5 11.4066 7.5 10.0232C7.5 8.63992 8.61667 7.52325 10 7.52325C11.3833 7.52325 12.5 8.63992 12.5 10.0232C12.5 11.4066 11.3833 12.5232 10 12.5232Z" fill="#EAECF0"/>
</g>
</g>
</g>
<defs>
<clipPath id="clip0_942_2903">
<rect width="20" height="20" fill="white" transform="translate(0 0.0232544)"/>
</clipPath>
</defs>
</svg>
