<svg width="20" height="21" viewBox="0 0 20 21" fill="none" xmlns="http://www.w3.org/2000/svg">
<g id="icon/action/settings_24px">
<path id="icon/action/settings_24px_2" fill-rule="evenodd" clip-rule="evenodd" d="M16.2523 10.9535C16.2523 11.2368 16.2273 11.5035 16.194 11.7701L17.9523 13.1451C18.1106 13.2701 18.1523 13.4951 18.0523 13.6785L16.3856 16.5618C16.3106 16.6951 16.169 16.7701 16.0273 16.7701C15.9773 16.7701 15.9273 16.7618 15.8773 16.7451L13.8023 15.9118C13.369 16.2368 12.9023 16.5201 12.394 16.7285L12.0773 18.9368C12.0523 19.1368 11.8773 19.2868 11.669 19.2868H8.33564C8.12731 19.2868 7.95231 19.1368 7.92731 18.9368L7.61064 16.7285C7.10231 16.5201 6.63564 16.2451 6.20231 15.9118L4.12731 16.7451C4.08564 16.7618 4.03564 16.7701 3.98564 16.7701C3.83564 16.7701 3.69397 16.6951 3.61897 16.5618L1.95231 13.6785C1.85231 13.4951 1.89397 13.2701 2.05231 13.1451L3.81064 11.7701C3.77731 11.5035 3.75231 11.2285 3.75231 10.9535C3.75231 10.6785 3.77731 10.4035 3.81064 10.1368L2.05231 8.76181C1.89397 8.63681 1.84397 8.41181 1.95231 8.22848L3.61897 5.34515C3.69397 5.21181 3.83564 5.13681 3.97731 5.13681C4.02731 5.13681 4.07731 5.14515 4.12731 5.16181L6.20231 5.99515C6.63564 5.67015 7.10231 5.38681 7.61064 5.17848L7.92731 2.97015C7.95231 2.77015 8.12731 2.62015 8.33564 2.62015H11.669C11.8773 2.62015 12.0523 2.77015 12.0773 2.97015L12.394 5.17848C12.9023 5.38681 13.369 5.66181 13.8023 5.99515L15.8773 5.16181C15.919 5.14515 15.969 5.13681 16.019 5.13681C16.169 5.13681 16.3106 5.21181 16.3856 5.34515L18.0523 8.22848C18.1523 8.41181 18.1106 8.63681 17.9523 8.76181L16.194 10.1368C16.2273 10.4035 16.2523 10.6701 16.2523 10.9535ZM14.5857 10.9535C14.5857 10.7785 14.5773 10.6035 14.544 10.3451L14.4273 9.40348L15.169 8.82015L16.0607 8.11181L15.4773 7.10348L14.419 7.52848L13.5357 7.88681L12.7773 7.30348C12.444 7.05348 12.1107 6.86181 11.7523 6.71181L10.869 6.35348L10.7357 5.41181L10.5773 4.28681H9.41899L9.25233 5.41181L9.11899 6.35348L8.23566 6.71181C7.89399 6.85348 7.55233 7.05348 7.19399 7.32015L6.44399 7.88681L5.57733 7.53681L4.51899 7.11181L3.93566 8.12015L4.83566 8.82015L5.57733 9.40348L5.46066 10.3451C5.43566 10.5951 5.41899 10.7868 5.41899 10.9535C5.41899 11.1201 5.43566 11.3118 5.46066 11.5701L5.57733 12.5118L4.83566 13.0951L3.93566 13.7951L4.51899 14.8035L5.57733 14.3785L6.46066 14.0201L7.21899 14.6035C7.55233 14.8535 7.88566 15.0451 8.24399 15.1951L9.12733 15.5535L9.26066 16.4951L9.41899 17.6201H10.5857L10.7523 16.4951L10.8857 15.5535L11.769 15.1951C12.1107 15.0535 12.4523 14.8535 12.8107 14.5868L13.5607 14.0201L14.4273 14.3701L15.4857 14.7951L16.069 13.7868L15.169 13.0868L14.4273 12.5035L14.544 11.5618C14.569 11.3118 14.5857 11.1285 14.5857 10.9535ZM10.0023 7.62015C8.16061 7.62015 6.66895 9.11181 6.66895 10.9535C6.66895 12.7951 8.16061 14.2868 10.0023 14.2868C11.8439 14.2868 13.3356 12.7951 13.3356 10.9535C13.3356 9.11181 11.8439 7.62015 10.0023 7.62015ZM8.33561 10.9535C8.33561 11.8701 9.08561 12.6201 10.0023 12.6201C10.9189 12.6201 11.6689 11.8701 11.6689 10.9535C11.6689 10.0368 10.9189 9.28681 10.0023 9.28681C9.08561 9.28681 8.33561 10.0368 8.33561 10.9535Z" fill="#FAFBFC"/>
</g>
</svg>
